<svg width="32" height="27" viewBox="0 0 32 27" fill="none" xmlns="http://www.w3.org/2000/svg">
<path d="M10.7375 5.7247e-06C9.36574 -8.84291e-05 8.53017 -0.00014518 7.8094 0.0980309C3.84815 0.637596 0.741392 3.30941 0.113989 6.71609C-0.000167206 7.33595 -0.000101214 8.05454 6.65662e-06 9.23426V17.7657C-0.000102824 18.9454 -0.000168813 19.664 0.113989 20.2839C0.74139 23.6906 3.84815 26.3624 7.8094 26.902C8.53017 27.0001 9.36575 27.0001 10.7375 27H12.4776C14.5603 27 16.4856 26.4072 18.0328 25.4077C18.5661 25.0633 18.6738 24.4123 18.2732 23.9537C17.8726 23.4953 17.1158 23.4026 16.5825 23.7471C15.439 24.4858 14.0194 24.9231 12.4776 24.9231H10.8676C9.32576 24.9231 8.69542 24.9199 8.18719 24.8507C5.25931 24.4519 2.96301 22.477 2.49928 19.9591C2.41879 19.522 2.41504 18.9799 2.41504 17.6538V9.34616C2.41504 8.02016 2.41879 7.47807 2.49928 7.04099C2.96301 4.52301 5.25931 2.54819 8.18719 2.14938C8.69542 2.08016 9.32576 2.07694 10.8676 2.07694H12.4776C14.0194 2.07694 15.439 2.51423 16.5825 3.2529C17.1158 3.59734 17.8726 3.50483 18.2732 3.04626C18.6738 2.58768 18.5661 1.93672 18.0328 1.59227C16.4856 0.592715 14.5603 1.12542e-05 12.4776 1.12542e-05L10.7375 5.7247e-06Z" fill="white"/>
<path d="M24.4979 7.14788C23.9753 6.79156 23.2158 6.86701 22.8014 7.31641C22.3871 7.76581 22.4749 8.41898 22.9973 8.77531L25.8358 10.7108C26.9692 11.4837 27.7453 12.0148 28.2725 12.4616H7.64745C6.98055 12.4616 6.43994 12.9265 6.43994 13.5C6.43994 14.0736 6.98055 14.5385 7.64745 14.5385H28.2725C27.7453 14.9853 26.9692 15.5165 25.8358 16.2894L22.9973 18.2248C22.4749 18.5812 22.3871 19.2343 22.8014 19.6837C23.2158 20.133 23.9753 20.2085 24.4979 19.8522L27.394 17.8775C28.4765 17.1392 29.3701 16.53 30.0065 15.9847C30.6597 15.4252 31.2012 14.8042 31.3482 14.0106C31.3794 13.8415 31.3952 13.6709 31.3952 13.5C31.3952 13.3292 31.3794 13.1587 31.3482 12.9896C31.2012 12.196 30.6597 11.5749 30.0065 11.0154C29.3701 10.4701 28.4767 9.86094 27.394 9.1227L24.4979 7.14788Z" fill="white"/>
</svg>
